<?xml version="1.0"?>
<svg version="1.1" xmlns="http://www.w3.org/2000/svg" width="350" height="159" style=""><path fill="#ffffff" d="M18.076171875,121.58984375q-0.048828125-1.46484375-0.048828125-2.9296875q0-4.58984375,0.48828125-9.228515625q0.5859375-6.15234375,0.78125-12.109375q0.1953125-6.982421875,0.5859375-14.501953125q0.244140625-4.1015625,0.244140625-8.10546875q0-3.271484375-0.146484375-6.494140625q0.48828125-1.123046875,1.2939453125-1.513671875t2.0263671875-0.390625q0.5859375,0,1.2451171875,0.09765625t1.1474609375,0.48828125q0.68359375,0.09765625,1.6845703125,0.1953125t1.5380859375,0.5859375q0.1953125,0.29296875,1.0009765625,2.001953125t1.904296875,4.150390625t2.294921875,5.2978515625t2.294921875,5.419921875t1.904296875,4.5166015625t1.0009765625,2.44140625q4.58984375-8.30078125,8.984375-17.0654296875t9.619140625-16.5283203125q0.48828125-0.68359375,1.6845703125-1.0009765625t1.9775390625-0.3173828125q2.099609375,0,3.0517578125,1.0009765625t1.2451171875,2.5634765625q0.1953125,0.9765625,0.244140625,2.099609375q0.048828125,0.5859375-0.048828125,1.220703125q-0.1953125,1.806640625-0.1953125,3.41796875q0,11.376953125-0.78125,22.5830078125t-1.416015625,22.6318359375q-0.09765625,2.34375-0.09765625,4.8828125t0.09765625,5.2734375q0.048828125,0.9765625,0.048828125,1.904296875q0,4.296875-0.732421875,8.0078125q-0.68359375,1.123046875-2.24609375,1.416015625t-2.63671875,0.29296875q-2.294921875,0-4.39453125-1.07421875l-0.537109375-0.634765625l-0.1953125-0.78125t-0.09765625-0.78125q0-7.080078125,0.5126953125-14.2578125t1.1474609375-14.3310546875t1.3427734375-14.2822265625t1.1962890625-14.2578125q-2.880859375,4.78515625-5.5908203125,9.7412109375t-5.1025390625,10.0830078125q-0.87890625,2.001953125-1.6845703125,4.296875t-1.9287109375,4.1015625q-0.5859375,0.87890625-1.9775390625,1.07421875t-2.4169921875,0.1953125q-0.9765625,0-2.0263671875-0.341796875t-1.4404296875-1.46484375q-1.806640625-5.517578125-3.857421875-10.791015625t-4.150390625-10.693359375q0,3.61328125,0.146484375,9.3505859375t0.146484375,11.8896484375t-0.1953125,11.767578125t-0.927734375,8.88671875q-0.1953125,1.220703125-1.5869140625,1.513671875t-2.4169921875,0.29296875q-0.78125,0-1.4892578125-0.09765625t-1.3916015625-0.390625z M75.09130859375,112.21484375q0-2.783203125,0.7080078125-5.7373046875t2.24609375-5.322265625t3.8818359375-3.857421875t5.6640625-1.4892578125q2.490234375,0,5.2490234375,0.8544921875t5.0537109375,2.44140625t3.7353515625,3.8818359375t1.4404296875,5.126953125q0,3.41796875-1.2451171875,6.494140625t-3.4912109375,5.4931640625t-5.2490234375,3.80859375t-6.5185546875,1.3916015625q-2.880859375,0-5.029296875-1.0498046875t-3.5888671875-2.8076171875t-2.1484375-4.150390625t-0.7080078125-5.078125z M82.26904296875,112.1171875q0,0.87890625,0.2685546875,2.587890625t0.8056640625,3.3447265625t1.3916015625,2.83203125t2.0751953125,1.0986328125q2.587890625-0.29296875,4.2724609375-1.6845703125t2.734375-3.3935546875t1.46484375-4.345703125t0.4150390625-4.443359375q0-2.685546875-1.0498046875-4.4921875t-3.4423828125-2.9296875q0,0.09765625,0.09765625,0.09765625t0.09765625-0.09765625l-1.220703125-0.29296875q-0.48828125-0.1953125-1.1962890625-0.439453125t-1.3916015625-1.07421875q-1.904296875,0.68359375-2.9541015625,1.7578125t-1.5869140625,2.6123046875t-0.6591796875,3.6865234375t-0.1220703125,5.17578125z M112.0869140625,113.2890625q0-3.41796875,0.7568359375-8.056640625t2.5634765625-8.7890625t4.7607421875-7.0556640625t7.4462890625-2.9052734375q4.19921875,0,6.298828125,2.4169921875t2.099609375,6.5185546875q0,2.685546875-1.0009765625,5.8837890625t-2.8564453125,6.0546875t-4.39453125,4.7607421875t-5.6640625,1.904296875l-1.26953125-0.09765625q0,1.318359375,0.390625,3.5400390625t1.1474609375,4.4189453125t1.953125,3.857421875t2.9052734375,1.66015625q2.490234375,0,4.78515625-2.001953125t4.345703125-4.443359375t3.80859375-4.443359375t3.22265625-2.001953125q0.78125,0,1.611328125,0.244140625t0.927734375,1.3671875q0,0.68359375-0.3662109375,1.123046875t-0.6591796875,0.9765625q-1.513671875,2.587890625-3.2958984375,4.931640625t-4.0283203125,4.248046875t-4.9072265625,3.0029296875t-5.8837890625,1.0986328125q-4.19921875,0-6.982421875-1.4892578125t-4.4921875-4.00390625t-2.4658203125-5.810546875t-0.7568359375-6.9091796875z M120.8271484375,109.578125l1.3671875,1.220703125q0.9765625,0.87890625,1.953125,0.390625t1.7578125-1.7822265625t1.4404296875-3.1982421875t1.171875-3.90625t0.7568359375-3.90625t0.244140625-3.173828125l0-1.66015625t-0.146484375-1.7578125t-0.5126953125-1.3916015625t-1.1474609375-0.7080078125q-0.244140625-0.048828125-0.439453125-0.048828125q-1.66015625,0-2.83203125,2.099609375q-1.26953125,2.34375-2.05078125,5.6884765625t-1.123046875,6.8603515625t-0.439453125,5.2734375z M152.89111328125,131.111328125l1.025390625-1.220703125q-0.1953125-8.203125-0.439453125-16.357421875t-0.244140625-16.2109375q0-10.009765625,1.1962890625-19.3603515625t2.3681640625-19.1650390625q0.09765625-0.5859375,0.5615234375-0.9521484375t1.1474609375-0.6103515625t1.3916015625-0.341796875t1.2939453125-0.09765625q0.78125,0,1.953125,0.29296875t2.34375,1.708984375q0,0.48828125,0.0732421875,0.8544921875t0.0732421875,0.8544921875q0,3.7109375-1.0009765625,7.958984375t-1.3427734375,8.154296875q-0.390625,4.78515625-0.537109375,9.47265625t-0.146484375,9.521484375l0.09765625,4.296875q0.9765625-1.220703125,2.783203125-3.125t3.90625-3.6865234375t4.19921875-3.0517578125t3.80859375-1.26953125q2.587890625,0,3.5888671875,1.46484375t1.0009765625,3.857421875q0,2.197265625-0.9521484375,4.58984375t-2.490234375,4.6630859375t-3.4912109375,4.0771484375t-3.857421875,2.685546875q2.587890625,3.22265625,5.2978515625,6.15234375t5.9326171875,5.517578125l0,1.123046875q-0.09765625,0.48828125-0.6103515625,0.732421875t-1.123046875,0.390625t-1.1962890625,0.2197265625t-0.9765625,0.0732421875q-2.392578125,0-4.6142578125-1.416015625t-4.150390625-3.466796875t-3.6376953125-4.345703125t-3.125-4.00390625q0.29296875,5.615234375,0.6591796875,11.2060546875t0.3662109375,11.2060546875q0,0.68359375-0.6103515625,1.1474609375t-1.416015625,0.7080078125t-1.6357421875,0.341796875t-1.3671875,0.09765625q-2.880859375,0-4.0771484375-1.0498046875t-2.0263671875-3.6376953125z M162.90087890625,108.11328125q1.220703125,0,2.9052734375-1.0498046875t3.4912109375-2.6123046875t3.369140625-3.2958984375t2.5146484375-3.2958984375t0.9521484375-2.5146484375t-1.318359375-0.8544921875q-0.48828125,0-2.001953125,1.416015625t-3.369140625,3.466796875t-3.7109375,4.443359375t-2.83203125,4.296875z M192.42578125,111.287109375q0-3.3203125,0.9033203125-6.396484375t2.7099609375-5.4931640625t4.5166015625-3.857421875t6.2744140625-1.4404296875q2.197265625,0,4.8583984375,0.6591796875t5.0048828125,1.953125t3.90625,3.2958984375t1.5625,4.58984375q0,1.220703125-0.4150390625,1.85546875t-1.6845703125,0.634765625l-0.537109375-0.09765625q1.416015625,3.80859375,2.44140625,7.8125t2.001953125,8.0078125q0.390625,0.78125,0.5859375,1.3916015625t0.1953125,1.1962890625q0,0.78125-0.439453125,1.2939453125t-1.1474609375,0.7568359375t-1.46484375,0.341796875t-1.3427734375,0.09765625q-2.099609375,0-3.1494140625-0.732421875t-1.513671875-2.001953125t-0.5615234375-2.8564453125t-0.390625-3.1982421875q-0.5859375,1.904296875-1.5380859375,3.7109375t-2.24609375,3.2470703125t-3.0517578125,2.294921875t-3.955078125,0.8544921875q-3.22265625,0-5.419921875-1.85546875t-3.5400390625-4.5654296875t-1.953125-5.7861328125t-0.6103515625-5.712890625z M199.359375,110.603515625q0,1.806640625,0.244140625,3.80859375t0.8056640625,3.955078125t1.4404296875,3.6865234375t2.197265625,3.0517578125q2.392578125-2.587890625,3.5400390625-6.298828125t2.05078125-7.1533203125t2.05078125-5.908203125t3.5400390625-2.4658203125q1.513671875,0,2.5390625,0.537109375q-0.48828125-1.220703125-1.611328125-2.3681640625t-2.5146484375-2.099609375t-2.880859375-1.5625t-2.8076171875-0.6103515625q-0.390625,0-0.9033203125,0.1220703125t-0.8056640625,0.0244140625q-2.001953125,0.5859375-3.2958984375,2.0263671875t-2.099609375,3.3935546875t-1.1474609375,4.00390625t-0.341796875,3.857421875z M234.74365234375,100.3984375q0-1.416015625,0.8056640625-1.85546875t2.0263671875-0.439453125q2.001953125,0,3.0517578125,0.7568359375t1.0498046875,2.6611328125q0,2.294921875,0.341796875,5.7373046875t1.0009765625,6.689453125t1.5625,5.5908203125t1.8798828125,2.34375q1.806640625,0,3.1982421875-2.783203125t2.44140625-6.8359375t1.806640625-8.7158203125t1.0498046875-8.3251953125q0.1953125-2.001953125,0.9521484375-2.9052734375t2.7587890625-0.9033203125q2.294921875,0,3.3447265625,1.904296875t1.3427734375,4.6875q0.244140625,2.392578125,0.244140625,4.98046875l0,0.830078125l0,1.953125q0,1.85546875,0.048828125,3.3203125l1.416015625,29.931640625l0.1953125,4.98046875q0.09765625,0.68359375,0.146484375,1.2939453125t0.048828125,1.2939453125q0,2.783203125-1.1962890625,3.5888671875t-3.8818359375,0.8056640625q-0.5859375,0-1.4892578125-0.09765625t-1.7578125-0.390625t-1.46484375-0.8056640625t-0.6103515625-1.2939453125l0.1953125-0.48828125q0.244140625-2.9296875,0.244140625-6.15234375l0-1.025390625q-0.048828125-3.80859375-0.244140625-7.71484375t-0.439453125-7.8125t-0.244140625-7.51953125q-0.68359375,1.513671875-1.5869140625,3.125t-2.099609375,2.9052734375t-2.7099609375,2.1484375t-3.41796875,0.8544921875q-2.783203125,0-4.58984375-1.46484375t-2.8076171875-3.80859375t-1.4404296875-5.2490234375t-0.5859375-5.810546875t-0.1953125-5.5419921875t-0.390625-4.443359375z M275.4501953125,111.287109375q0-3.3203125,0.9033203125-6.396484375t2.7099609375-5.4931640625t4.5166015625-3.857421875t6.2744140625-1.4404296875q2.197265625,0,4.8583984375,0.6591796875t5.0048828125,1.953125t3.90625,3.2958984375t1.5625,4.58984375q0,1.220703125-0.4150390625,1.85546875t-1.6845703125,0.634765625l-0.537109375-0.09765625q1.416015625,3.80859375,2.44140625,7.8125t2.001953125,8.0078125q0.390625,0.78125,0.5859375,1.3916015625t0.1953125,1.1962890625q0,0.78125-0.439453125,1.2939453125t-1.1474609375,0.7568359375t-1.46484375,0.341796875t-1.3427734375,0.09765625q-2.099609375,0-3.1494140625-0.732421875t-1.513671875-2.001953125t-0.5615234375-2.8564453125t-0.390625-3.1982421875q-0.5859375,1.904296875-1.5380859375,3.7109375t-2.24609375,3.2470703125t-3.0517578125,2.294921875t-3.955078125,0.8544921875q-3.22265625,0-5.419921875-1.85546875t-3.5400390625-4.5654296875t-1.953125-5.7861328125t-0.6103515625-5.712890625z M282.3837890625,110.603515625q0,1.806640625,0.244140625,3.80859375t0.8056640625,3.955078125t1.4404296875,3.6865234375t2.197265625,3.0517578125q2.392578125-2.587890625,3.5400390625-6.298828125t2.05078125-7.1533203125t2.05078125-5.908203125t3.5400390625-2.4658203125q1.513671875,0,2.5390625,0.537109375q-0.48828125-1.220703125-1.611328125-2.3681640625t-2.5146484375-2.099609375t-2.880859375-1.5625t-2.8076171875-0.6103515625q-0.390625,0-0.9033203125,0.1220703125t-0.8056640625,0.0244140625q-2.001953125,0.5859375-3.2958984375,2.0263671875t-2.099609375,3.3935546875t-1.1474609375,4.00390625t-0.341796875,3.857421875z M317.76806640625,128.62109375q0-1.416015625,0.1220703125-2.978515625t0.2197265625-2.9296875l0.29296875-7.32421875q0.48828125-8.7890625,1.1962890625-17.28515625t1.1962890625-17.1875q0.29296875-4.78515625,0.439453125-9.3994140625t0.439453125-9.3994140625q-0.1953125-0.390625-0.1953125-0.537109375q0-0.68359375,0.5126953125-1.07421875t1.1962890625-0.6591796875t1.4404296875-0.3662109375t1.1474609375-0.09765625l1.123046875,0q1.513671875,0.1953125,2.197265625,0.9521484375t0.87890625,1.806640625t0.09765625,2.24609375t-0.09765625,2.2216796875q0,7.080078125-0.341796875,14.4287109375t-0.78125,14.74609375t-0.8056640625,14.794921875t-0.3662109375,14.6240234375l0,3.41796875q0,2.294921875-1.2939453125,3.02734375t-3.5888671875,0.732421875q-2.001953125,0-3.515625-0.87890625t-1.513671875-2.880859375z"/><path fill="#" d=""/></svg>
