<svg width="590" height="269" viewBox="0 0 590 269" fill="none" xmlns="http://www.w3.org/2000/svg">
<path d="M11.9593 31.1521H0.386078L2.06606 5.85895H57.8256C83.292 5.85895 100.399 16.6455 99.0119 37.392C98.1185 50.8985 89.3319 59.6451 82.532 63.0318V63.3518C96.8385 67.5784 101.358 79.885 100.652 90.4982C98.9052 116.791 75.1054 126.431 49.8123 126.431H18.6526C9.55933 126.431 5.89269 122.711 6.45269 114.098L11.9726 31.1521H11.9593ZM55.0789 52.5785C62.5588 52.5785 66.2922 47.1786 66.6788 41.432C67.0521 35.872 63.9722 31.1521 55.9589 31.1521H43.839L42.4257 52.5785H55.0789ZM54.5189 101.125C63.0655 101.125 67.5588 95.2181 68.0121 88.4849C68.4521 81.7516 64.9055 76.1916 56.3456 76.1916H40.8524L39.1857 101.125H54.5189Z" fill="#3C4449"/>
<path d="M203.024 100.391L207.158 35.7787H176.344L173.798 75.9117C172.945 89.4582 165.971 100.898 152.785 100.898C146.371 100.898 143.225 97.3781 143.758 88.9515L146.318 48.6452C146.891 39.6453 143.211 35.7787 134.132 35.7787H105.625L104.185 58.3651H114.772L114.598 61.2851H114.678L112.558 94.5648C110.932 120.098 124.838 128.538 142.998 128.538C155.278 128.538 166.905 122.551 172.491 112.858H172.851C172.851 112.858 172.585 114.098 172.518 114.965L172.451 116.205C172.065 122.378 176.438 126.445 184.798 126.445H212.064L213.531 103.458H202.824L203.011 100.405L203.024 100.391Z" fill="#3C4449"/>
<path d="M312.25 100.885H312.223L317.783 13.4322C318.343 4.45898 314.677 0.592346 305.583 0.592346H277.077L275.624 23.1121H286.37L286.184 26.1655H286.17L285.917 29.9788L285.53 35.952C285.397 38.2453 285.464 40.0053 285.464 40.0053H285.104C285.104 40.0053 279.97 33.6721 261.45 33.6721C237.037 33.6721 218.411 52.3386 216.584 81.0183C214.797 109.151 229.957 128.538 254.89 128.538C273.77 128.538 282.21 116.191 282.21 116.191H282.57C282.57 116.191 282.504 117.071 282.464 117.778C282.197 122.018 285.13 126.431 293.85 126.431H321.29L322.73 103.445H312.103L312.263 100.885H312.25ZM264.13 103.351C253.437 103.351 246.717 94.5515 247.571 81.0183C248.451 67.1118 257.317 59.3785 266.93 59.3785C279.024 59.3785 284.237 70.0984 283.544 81.0183C282.557 96.6582 273.384 103.351 264.13 103.351Z" fill="#3C4449"/>
<path d="M483.915 33.6721C510.995 33.6721 525.115 52.3386 523.528 77.5117C523.328 80.4983 522.235 86.6449 522.235 86.6449H464.355C465.942 98.0848 474.862 103.178 484.662 103.178C497.862 103.178 509.675 93.6848 509.675 93.6848L520.648 114.085C520.648 114.085 504.955 128.538 480.542 128.538C447.782 128.538 431.649 105.111 433.195 81.0183C434.875 54.4452 454.342 33.6721 483.915 33.6721ZM492.595 68.1651C492.955 62.5385 488.862 56.5652 482.448 56.5652C473.542 56.5652 468.782 61.4851 466.395 68.1651H492.595Z" fill="#DE0614"/>
<path d="M68.7721 171.951H57.2122L58.8789 146.844H111.252C151.331 146.844 175.504 168.777 172.998 206.484C170.478 244.15 143.345 266.59 103.252 266.59H75.4654C66.3855 266.59 62.7055 262.897 63.2788 254.363L68.7854 171.964L68.7721 171.951ZM99.9318 241.457H103.678C124.692 241.457 138.345 229.39 139.865 206.47C141.385 183.671 128.798 171.951 108.318 171.951H100.665L96.2652 237.777C96.1052 240.124 97.4518 241.47 99.9318 241.47V241.457Z" fill="#DE0614"/>
<path d="M358.703 173.831C385.769 173.831 399.902 192.471 398.289 217.657C398.116 220.644 397.009 226.804 397.009 226.804H339.103C340.69 238.244 349.65 243.337 359.449 243.337C372.623 243.337 384.449 233.844 384.449 233.844L395.423 254.243C395.423 254.243 379.729 268.683 355.343 268.683C322.543 268.683 306.41 245.283 307.957 221.19C309.65 194.591 329.116 173.831 358.703 173.831ZM367.369 208.337C367.729 202.71 363.649 196.724 357.25 196.724C348.343 196.724 343.57 201.657 341.183 208.337H367.369Z" fill="#DE0614"/>
<path d="M458.769 173.831C471.595 173.831 492.302 178.751 491.262 195.124L490.462 207.63H463.755L464.302 199.004C464.302 199.004 460.915 199.004 457.195 199.004C444.182 199.004 435.729 208.67 434.969 220.817C433.982 236.297 445.329 242.457 456.742 242.457C469.928 242.457 482.782 230.67 482.782 230.67L493.755 251.083C493.755 251.083 478.222 268.683 452.049 268.683C419.289 268.683 402.356 246.15 403.942 221.19C405.462 197.244 424.062 173.831 458.782 173.831H458.769Z" fill="#DE0614"/>
<path d="M538.368 201.711L538.568 198.657H557.821L559.261 175.951H540.021L541.581 151.498H511.675L510.115 175.951H497.475L496.022 198.657H507.768L507.702 199.724H507.728L505.582 233.15C503.675 263.577 531.728 267.443 546.328 267.443C551.314 267.443 554.728 266.91 554.728 266.91L556.408 240.537C556.408 240.537 554.794 240.697 552.301 240.697C546.421 240.697 536.021 239.297 536.661 229.097L538.421 201.711H538.381H538.368Z" fill="#DE0614"/>
<path d="M306.663 174.364C292.943 174.364 280.73 184.564 276.024 196.897H275.677C275.677 196.897 276.144 195.124 276.317 192.297L276.624 187.551C277.144 179.284 272.73 175.937 264.344 175.937H237.091L235.651 198.644H246.331L246.144 201.697L242.037 266.563H272.877L275.05 232.244C275.37 227.337 276.17 223.284 277.437 219.937C282.744 206.39 294.823 204.111 302.13 204.111C305.877 204.111 308.33 204.617 308.33 204.617L310.25 174.697C310.25 174.697 308.503 174.351 306.703 174.351L306.663 174.364Z" fill="#DE0614"/>
<path d="M218.864 240.71L222.157 188.777C222.731 179.817 219.051 175.937 209.984 175.937H181.451L180.038 198.644H190.691L190.518 201.484H190.558L187.198 253.723C186.624 262.697 190.318 266.577 199.411 266.577H227.904L229.344 243.79H218.651L218.851 240.724L218.864 240.71Z" fill="#DE0614"/>
<path d="M422.676 58.3918H433.009L434.449 35.7787H406.636C399.689 35.7787 396.556 40.5386 396.396 43.0053C396.342 43.7253 396.316 44.2453 396.316 44.2453H395.956C395.956 44.2453 388.796 33.6587 370.116 33.6587C342.316 33.6587 327.583 55.1385 326.116 78.1916C324.636 101.418 336.93 123.791 364.556 123.791C375.236 123.791 382.356 120.978 388.076 115.138H388.436C388.436 115.138 388.103 117.431 388.036 118.511L387.956 119.925C387.103 133.298 376.703 137.338 365.649 137.338C348.343 137.338 331.983 126.591 331.983 126.591L329.916 155.298C338.556 159.884 351.863 163.391 364.156 163.391C389.276 163.391 416.782 151.244 418.876 118.138L422.476 61.4718L422.676 58.4051V58.3918ZM373.449 98.4315C361.169 98.4315 356.45 88.4049 357.183 77.1383C357.836 66.7651 363.849 59.0185 374.716 59.0185C383.983 59.0185 392.303 62.5384 391.289 78.5516C390.276 94.3782 381.476 98.4315 373.463 98.4315H373.449Z" fill="#DE0614"/>
<path d="M582.981 100.538C577.088 100.538 566.688 99.1248 567.341 88.9382L569.208 59.5518H569.234L569.328 58.2185H588.527L589.954 35.7787H570.714L572.248 11.3256H542.328L540.768 35.7787H528.115L526.688 58.2185H538.421L538.341 59.5518H538.368L536.248 92.9782C534.301 123.431 562.381 127.298 577.008 127.298C581.981 127.298 585.407 126.778 585.407 126.778L587.074 100.365C587.074 100.365 585.461 100.538 582.967 100.538H582.981Z" fill="#DE0614"/>
<path d="M565.261 146.378C571.061 146.378 575.687 151.044 575.687 156.884C575.687 162.724 571.061 167.391 565.261 167.391C559.461 167.391 554.928 162.724 554.928 156.884C554.928 151.044 559.528 146.378 565.261 146.378ZM565.261 165.431C569.954 165.431 573.554 161.698 573.554 156.884C573.554 152.071 569.941 148.338 565.261 148.338C560.581 148.338 557.048 152.071 557.048 156.884C557.048 161.698 560.634 165.431 565.261 165.431ZM561.701 152.964H560.714V151.404H565.928C567.994 151.404 569.394 152.698 569.394 154.711C569.394 156.378 568.288 157.364 567.381 157.591V157.644C567.381 157.644 567.728 157.738 567.994 158.218L569.128 160.378C569.328 160.724 569.594 160.751 569.821 160.751H570.141V162.244H569.034C568.221 162.244 567.834 162.151 567.461 161.444L565.941 158.591C565.674 158.098 565.394 158.044 564.954 158.044H563.754V162.244H561.688V152.951L561.701 152.964ZM565.528 156.564C566.608 156.564 567.301 155.871 567.301 154.724C567.301 153.578 566.608 152.964 565.528 152.964H563.781V156.564H565.528Z" fill="#DE0614"/>
</svg>
